HIERARCHY
ROOT Hips
{
 OFFSET 0.000000 0.000000 0.000000
 CHANNELS 6 Xposition Yposition Zposition Yrotation Xrotation Zrotation
 JOINT Chest
 {
  OFFSET 0.000000 9.585900 0.002600
  CHANNELS 3 Yrotation Xrotation Zrotation
  JOINT Chest2
  {
   OFFSET 0.000000 9.601200 -0.005300
   CHANNELS 3 Yrotation Xrotation Zrotation
   JOINT Chest3
   {
    OFFSET 0.000000 9.561800 0.000000
    CHANNELS 3 Yrotation Xrotation Zrotation
    JOINT Chest4
    {
     OFFSET 0.000000 9.552100 0.000000
     CHANNELS 3 Yrotation Xrotation Zrotation
     JOINT Neck
     {
      OFFSET 0.000000 14.453000 0.000000
      CHANNELS 3 Yrotation Xrotation Zrotation
      JOINT Head
      {
       OFFSET 0.000000 8.936500 -0.011300
       CHANNELS 3 Yrotation Xrotation Zrotation
       End Site
       {
        OFFSET 0.000000 17.073600 -0.006000
       }
      }
     }
     JOINT RightCollar
     {
      OFFSET -2.921100 9.558500 0.000000
      CHANNELS 3 Yrotation Xrotation Zrotation
      JOINT RightShoulder
      {
       OFFSET -13.519700 0.000000 0.000000
       CHANNELS 3 Yrotation Xrotation Zrotation
       JOINT RightElbow
       {
        OFFSET 0.000000 -29.696600 0.000000
        CHANNELS 3 Yrotation Xrotation Zrotation
        JOINT RightWrist
        {
         OFFSET 0.000000 -24.004700 0.000000
         CHANNELS 3 Yrotation Xrotation Zrotation
         End Site
         {
          OFFSET 0.000000 -17.728500 0.000000
         }
        }
       }
      }
     }
     JOINT LeftCollar
     {
      OFFSET 2.921100 9.558500 0.000000
      CHANNELS 3 Yrotation Xrotation Zrotation
      JOINT LeftShoulder
      {
       OFFSET 13.519700 0.000000 0.000000
       CHANNELS 3 Yrotation Xrotation Zrotation
       JOINT LeftElbow
       {
        OFFSET 0.000000 -29.696600 0.000000
        CHANNELS 3 Yrotation Xrotation Zrotation
        JOINT LeftWrist
        {
         OFFSET 0.000000 -24.004700 0.000000
         CHANNELS 3 Yrotation Xrotation Zrotation
         End Site
         {
          OFFSET 0.000000 -17.728500 0.000000
         }
        }
       }
      }
     }
    }
   }
  }
 }
 JOINT RightHip
 {
  OFFSET -7.771700 -0.012900 -0.001300
  CHANNELS 3 Yrotation Xrotation Zrotation
  JOINT RightKnee
  {
   OFFSET 0.000000 -40.869800 0.001200
   CHANNELS 3 Yrotation Xrotation Zrotation
   JOINT RightAnkle
   {
    OFFSET 0.000000 -39.717900 0.002100
    CHANNELS 3 Yrotation Xrotation Zrotation
    JOINT RightToe
    {
     OFFSET 0.000000 -4.965400 11.033500
     CHANNELS 3 Yrotation Xrotation Zrotation
     End Site
     {
      OFFSET 0.000000 -1.423100 5.872300
     }
    }
   }
  }
 }
 JOINT LeftHip
 {
  OFFSET 7.771700 -0.012900 -0.001300
  CHANNELS 3 Yrotation Xrotation Zrotation
  JOINT LeftKnee
  {
   OFFSET 0.000000 -40.869800 0.001200
   CHANNELS 3 Yrotation Xrotation Zrotation
   JOINT LeftAnkle
   {
    OFFSET 0.000000 -39.717900 0.002100
    CHANNELS 3 Yrotation Xrotation Zrotation
    JOINT LeftToe
    {
     OFFSET 0.000000 -4.965400 11.033500
     CHANNELS 3 Yrotation Xrotation Zrotation
     End Site
     {
      OFFSET 0.000000 -1.423100 5.872300
     }
    }
   }
  }
 }
}
MOTION
Frames: 8
Frame Time: 0.008333
0.000000 85.388000 0.000000 0.000000 -5.767877 0.000000 0.000000 11.653817 0.000000 0.000000 -5.885947 0.000000 0.000000 -0.000000 0.000000 0.000000 -0.000000 0.000000 0.000000 12.528835 0.000000 0.000000 0.711642 0.000000 0.000000 -0.000000 0.000000 0.000000 0.000000 -90.000000 0.000000 -2.309062 0.000000 0.000000 2.309062 0.000000 0.000000 -0.000000 0.000000 0.000000 -0.000000 90.000000 0.000000 -2.309062 0.000000 0.000000 2.309062 0.000000 0.000000 8.520406 0.000000 0.000000 1.905762 0.000000 -0.000000 -4.658285 0.000000 0.000000 -0.000000 0.000000 0.000000 8.520406 0.000000 0.000000 1.905762 0.000000 -0.000000 -4.658285 0.000000 0.000000 -0.000000 0.000000
-62.378342 48.527133 15.656789 173.280079 -29.113297 -0.094303 0.124424 13.718972 1.699770 -0.101217 7.850147 1.373878 -0.105049 9.810202 1.720036 -0.099043 7.851864 1.371164 -0.784728 17.186007 -2.585578 -0.561960 -3.861682 -4.518994 6.105631 4.498352 -5.692495 1.119360 -23.179994 -8.655971 39.981571 -57.438882 -24.757410 11.209326 9.807543 -38.382898 -1.742428 0.861511 -3.130475 3.849526 -26.394135 -2.654135 -62.605656 -38.922625 38.934336 -6.602027 13.047796 36.955360 22.723236 -53.766273 -27.606133 -104.413938 65.154151 -96.407182 1.462780 -3.013466 3.132101 0.172112 -0.926238 0.079743 -3.578737 -55.279479 12.682128 96.874913 82.195614 95.027158 -6.324849 -8.707034 -1.471017 0.277273 0.755288 0.120149
-62.379580 48.526821 15.655957 173.278036 -29.111134 -0.090418 0.130342 13.718780 1.697753 -0.101059 7.849339 1.374899 -0.101612 9.812028 1.717877 -0.103981 7.849489 1.373521 -0.778522 17.190814 -2.589284 -0.566508 -3.862236 -4.515287 6.110361 4.495155 -5.698944 1.112000 -23.173830 -8.649234 39.989170 -57.442571 -24.758828 11.205391 9.809003 -38.388709 -1.745550 0.861378 -3.128599 3.849436 -26.397166 -2.657614 -62.599416 -38.920747 38.934832 -6.608853 13.033196 36.948440 22.729737 -53.767154 -27.610360 -104.406639 65.157434 -96.404841 1.463901 -3.010681 3.136492 0.169052 -0.924820 0.078806 -3.571861 -55.280000 12.676490 96.870631 82.198301 95.023099 -6.328515 -8.712207 -1.470667 0.275795 0.758863 0.120728
-62.381425 48.526842 15.654154 173.285621 -29.114453 -0.088491 0.126412 13.720845 1.695230 -0.103977 7.850508 1.374737 -0.101455 9.812213 1.715985 -0.103912 7.849634 1.373467 -0.776989 17.192605 -2.587780 -0.564400 -3.862178 -4.521153 6.109646 4.494375 -5.699290 1.111796 -23.172403 -8.648875 39.996239 -57.444441 -24.764530 11.204938 9.809248 -38.380503 -1.746894 0.865328 -3.130131 3.851355 -26.402492 -2.657864 -62.598967 -38.920335 38.929821 -6.609304 13.032841 36.956096 22.730362 -53.761170 -27.619146 -104.412977 65.161361 -96.415265 1.468749 -3.012402 3.143619 0.162917 -0.924110 0.076269 -3.567128 -55.276739 12.663699 96.867453 82.199634 95.020793 -6.331659 -8.712150 -1.469976 0.280783 0.757573 0.123158
-62.384037 48.526170 15.653218 173.289625 -29.111210 -0.082135 0.121634 13.716642 1.687070 -0.104463 7.851393 1.375677 -0.100836 9.813810 1.719531 -0.102715 7.851830 1.378409 -0.781188 17.189918 -2.596328 -0.560426 -3.860788 -4.526167 6.112490 4.492265 -5.710068 1.113814 -23.169889 -8.651554 39.988676 -57.444053 -24.765649 11.202050 9.812598 -38.384875 -1.747151 0.863944 -3.138219 3.847732 -26.404746 -2.659217 -62.584465 -38.925966 38.927875 -6.618732 13.027258 36.952360 22.752174 -53.761212 -27.649606 -104.433794 65.165148 -96.432418 1.475166 -3.007342 3.147666 0.157631 -0.929973 0.073430 -3.554669 -55.281310 12.646079 96.868551 82.211995 95.020851 -6.319252 -8.708289 -1.465788 0.280908 0.754882 0.123248
-62.385525 48.525658 15.651851 173.296022 -29.112237 -0.084018 0.116435 13.716941 1.684711 -0.104687 7.851683 1.377717 -0.100756 9.814378 1.721729 -0.100988 7.853728 1.378754 -0.783774 17.188944 -2.598723 -0.557930 -3.854045 -4.536596 6.121864 4.487917 -5.712782 1.105892 -23.169625 -8.656414 39.984337 -57.442753 -24.758962 11.201850 9.816371 -38.388056 -1.744074 0.870979 -3.139805 3.850314 -26.409299 -2.671407 -62.592714 -38.923834 38.936838 -6.604719 13.032832 36.953806 22.749685 -53.759794 -27.653787 -104.439783 65.165911 -96.439903 1.479045 -3.007702 3.151120 0.152233 -0.930160 0.071615 -3.551176 -55.282499 12.639895 96.875249 82.217751 95.028579 -6.316245 -8.704761 -1.464037 0.282365 0.751893 0.125705
-62.386400 48.524803 15.650995 173.298598 -29.111119 -0.088012 0.116502 13.715156 1.686206 -0.104778 7.852852 1.379332 -0.099763 9.815250 1.723550 -0.100523 7.854206 1.380060 -0.784911 17.189599 -2.600883 -0.559467 -3.855496 -4.538692 6.125346 4.487603 -5.715822 1.100009 -23.168112 -8.658414 39.985940 -57.441294 -24.767082 11.197326 9.815103 -38.391432 -1.744841 0.870744 -3.141241 3.852483 -26.411370 -2.675563 -62.595122 -38.923148 38.937920 -6.597926 13.034067 36.956150 22.747746 -53.762672 -27.651887 -104.442801 65.162418 -96.443270 1.479328 -3.007028 3.151942 0.151398 -0.929419 0.070957 -3.554807 -55.284484 12.645098 96.883180 82.224431 95.036172 -6.314560 -8.705074 -1.463557 0.285892 0.752400 0.127782
-62.388187 48.523536 15.650674 173.304470 -29.106628 -0.087794 0.113662 13.710277 1.682182 -0.106338 7.853395 1.380689 -0.098175 9.816638 1.725990 -0.102344 7.853263 1.379370 -0.775202 17.193307 -2.604952 -0.569355 -3.858967 -4.535418 6.130224 4.490051 -5.715206 1.099690 -23.166710 -8.667043 39.975331 -57.444781 -24.757683 11.195880 9.812948 -38.394885 -1.741723 0.870687 -3.141375 3.854263 -26.411311 -2.678164 -62.593585 -38.924972 38.936060 -6.597841 13.032641 36.956704 22.753385 -53.765966 -27.663963 -104.446088 65.163235 -96.446205 1.477744 -3.004843 3.151556 0.151482 -0.929850 0.071854 -3.553512 -55.289118 12.641524 96.868843 82.233544 95.020574 -6.322501 -8.704401 -1.456095 0.280961 0.754218 0.124853
